# xmcd
#
# Track frame offsets:
#	150
#	14642
#	27820
#	47645
#	61262
#	74860
#	89412
#	102097
#	115067
#	129295
#
# Disc length: 1955
#
# Revision: 3
# Processed by: cddbd v1.5.1PL0 Copyright (c) Steve Scherf et al.
# Submitted via: DiscPlay 4.0.4
# Normalized: r1:TDELIM( - ),TSWAP
#
DISCID=8407a10a
DTITLE=Various Artist - Country Line Dance Greatest Hits
DYEAR=1900
DGENRE=
TTITLE0=Vince Gill - One More Last Chance
TTITLE1=Alan Jackson - Love's Got A Hold On You
TTITLE2=Restless Heart - Fast Movin' Train
TTITLE3=Diamond Rio - In A Week Or Two
TTITLE4=Pam Tillis - Ancient History
TTITLE5=Shenandoah - Leavin's Been A Long Time Comin'
TTITLE6=Mark Chestnutt (with Special Guest George Jones) - Talking To Hank
TTITLE7=Chris LeDoux - Cadillac Ranch
TTITLE8=Rob Crosby - Still Burnin' For You
TTITLE9=Cleve Francis - Walkin'
EXTD=
EXTT0=
EXTT1=
EXTT2=
EXTT3=
EXTT4=
EXTT5=
EXTT6=
EXTT7=
EXTT8=
EXTT9=
PLAYORDER=
